#N canvas 0 22 865 658 10;
#X obj 37 64 lop~ 70;
#X obj 37 119 peakamp~ 15;
#X obj 37 29 adc~;
#X text 75 29 receive signal from pedal on adc input 1;
#X text 88 56 The pedal "shorts" the input when pressed and generates
60Hz \, so we only want this patch to listen for less than 70Hz;
#X text 116 111 A minimum amplitude value gets by \, to account for
noisefloor;
#X obj 183 173 metro 50;
#X obj 195 150 loadbang;
#X obj 125 256 hsl 128 15 0 127 0 0 empty empty empty -2 -8 0 10 -262144
-1 -1 0 1;
#X obj 275 272 average 10;
#X obj 275 297 int;
#X obj 275 322 nbx 5 14 -1e+37 1e+37 0 0 empty empty empty 0 -8 0 10
-262144 -1 -1 0 256;
#X text 277 336 baseline;
#X text 350 275 This is just a meter that slows down the reporting
to show you what the baseline level is when the pedal is down;
#X obj 93 392 int;
#X obj 93 425 pipe 10;
#X text 240 173 sample every 50 msec;
#X text 200 207 Amplifies the very weak signal from the pedal;
#X obj 123 210 *;
#X msg 159 207 15000;
#X text 147 426 take the amplified signal and hold it for 10 msec;
#X obj 94 453 gate 3;
#X text 120 383 converts the signal to a integer number;
#X text 143 454 when no signal is coming in (pedal is up) than gate
is closed \, otherwise it is passed to the expression;
#X obj 97 503 expr $i1 \; if ($i1 > $i2 \, 2 \, 0);
#X obj 254 515 nbx 5 14 -1e+37 1e+37 0 0 empty empty empty 0 -8 0 10
-262144 -1 -1 70 256;
#X text 313 513 threshold (default 70);
#X obj 361 496 loadbang;
#X msg 316 496 70;
#X text 42 546 if the incoming signal is greater than the threshold
\, the next cue is triggered \, otherwise the gate closes again.;
#X floatatom 105 580 5 0 0 0 - - -;
#X obj 105 622 t b b;
#X obj 155 645 bang;
#X obj 105 600 select 2;
#X msg 155 622 2;
#X floatatom 41 447 5 0 0 0 - - -;
#N canvas 643 287 450 300 trigger 0;
#X obj 45 27 inlet;
#X obj 44 73 t b b b;
#X obj 43 123 delay 2000;
#X msg 46 191 1;
#X msg 108 192 0;
#X obj 47 246 s gate;
#X obj 189 239 outlet;
#X floatatom 257 136 5 0 0 0 - - -;
#X obj 256 178 s EVT;
#X obj 337 27 inlet;
#X obj 361 101 r loc;
#X obj 265 71 loadbang;
#X msg 337 46 dec;
#X text 313 6 Trigger back now;
#X text 2 7 Trigger Next with Delay;
#X text 177 5 Trigger next now;
#X msg 203 44 inc;
#X obj 203 25 inlet;
#X obj 255 90 counter 0 1 12;
#X connect 0 0 1 0;
#X connect 1 0 2 0;
#X connect 1 1 4 0;
#X connect 1 2 18 0;
#X connect 2 0 3 0;
#X connect 3 0 5 0;
#X connect 4 0 5 0;
#X connect 7 0 8 0;
#X connect 9 0 12 0;
#X connect 10 0 18 3;
#X connect 11 0 18 2;
#X connect 12 0 18 0;
#X connect 16 0 18 0;
#X connect 17 0 16 0;
#X connect 18 0 6 0;
#X connect 18 0 7 0;
#X coords 0 300 1 299 85 60 0;
#X restore 51 670 pd trigger;
#X text 128 671 check out this trigger patch for various options \,
delays \, etc.;
#X text 471 24 This patch uses an analog (keyboard-type) pedal to create
bang triggers in PD \, useful for triggering events \, etc. with a
simple pedal. Pedal is connected to input of adc and creates noise
which is used to trigger;
#X connect 0 0 1 0;
#X connect 1 0 18 0;
#X connect 2 0 0 0;
#X connect 6 0 18 0;
#X connect 7 0 6 0;
#X connect 7 0 19 0;
#X connect 8 0 9 0;
#X connect 9 0 10 0;
#X connect 10 0 11 0;
#X connect 14 0 15 0;
#X connect 15 0 21 1;
#X connect 18 0 8 0;
#X connect 18 0 14 0;
#X connect 19 0 18 1;
#X connect 21 0 24 0;
#X connect 24 0 30 0;
#X connect 25 0 24 1;
#X connect 27 0 28 0;
#X connect 28 0 25 0;
#X connect 30 0 33 0;
#X connect 31 0 36 0;
#X connect 31 1 34 0;
#X connect 32 0 21 0;
#X connect 33 0 31 0;
#X connect 34 0 32 0;
#X connect 34 0 35 0;
#X connect 35 0 21 0;
